<svg xmlns="http://www.w3.org/2000/svg" viewBox="0 0 1600 900" width="1600" height="900">
  <defs>
    <linearGradient id="sky" x1="0" y1="0" x2="0" y2="1">
      <stop offset="0%" stop-color="#0E4D9A"/>
      <stop offset="30%" stop-color="#1A74C8"/>
      <stop offset="65%" stop-color="#4AAEE0"/>
      <stop offset="100%" stop-color="#A8D8F0"/>
    </linearGradient>
  </defs>
  <rect width="1600" height="900" fill="url(#sky)"/>
  <polygon points="0,640 120,490 270,555 440,450 610,520 780,430 960,508 1120,418 1300,495 1460,425 1600,475 1600,780 0,780" fill="#4A8AAA" opacity="0.5"/>
  <polygon points="0,730 95,600 210,645 360,570 530,625 700,550 875,610 1045,540 1215,600 1380,532 1530,588 1600,562 1600,820 0,820" fill="#2A6888" opacity="0.65"/>
  <rect x="0" y="818" width="1600" height="82" fill="#245E30"/>
  <rect x="0" y="818" width="1600" height="14" fill="#2E7838"/>
  <g fill="#FFFFFF" opacity="0.6">
    <ellipse cx="170" cy="195" rx="115" ry="46"/><ellipse cx="250" cy="182" rx="85" ry="36"/><ellipse cx="105" cy="202" rx="68" ry="32"/>
    <ellipse cx="670" cy="148" rx="108" ry="43"/><ellipse cx="755" cy="135" rx="80" ry="33"/><ellipse cx="608" cy="155" rx="62" ry="29"/>
    <ellipse cx="1200" cy="172" rx="125" ry="49"/><ellipse cx="1298" cy="158" rx="92" ry="38"/><ellipse cx="1118" cy="180" rx="72" ry="34"/>
  </g>
  <g fill="#FFFFFF" opacity="0.88">
    <ellipse cx="415" cy="262" rx="98" ry="40"/><ellipse cx="492" cy="250" rx="74" ry="31"/><ellipse cx="353" cy="268" rx="56" ry="27"/>
    <ellipse cx="978" cy="218" rx="112" ry="44"/><ellipse cx="1065" cy="205" rx="82" ry="34"/><ellipse cx="906" cy="225" rx="66" ry="31"/>
    <ellipse cx="1448" cy="276" rx="88" ry="37"/><ellipse cx="1520" cy="265" rx="66" ry="28"/><ellipse cx="1388" cy="282" rx="50" ry="24"/>
    <ellipse cx="120" cy="330" rx="75" ry="32"/><ellipse cx="185" cy="320" rx="56" ry="24"/><ellipse cx="68" cy="336" rx="42" ry="20"/>
  </g>
</svg>
