<svg xmlns="http://www.w3.org/2000/svg" viewBox="0 0 1600 900" width="1600" height="900">
  <defs>
    <linearGradient id="sunset" x1="0" y1="0" x2="0" y2="1">
      <stop offset="0%"   stop-color="#120630"/>
      <stop offset="18%"  stop-color="#3A0E5C"/>
      <stop offset="36%"  stop-color="#861878"/>
      <stop offset="52%"  stop-color="#BA2858"/>
      <stop offset="66%"  stop-color="#D03C1E"/>
      <stop offset="78%"  stop-color="#E06020"/>
      <stop offset="90%"  stop-color="#E88828"/>
      <stop offset="100%" stop-color="#ECA838"/>
    </linearGradient>
  </defs>
  <rect width="1600" height="900" fill="url(#sunset)"/>
  <ellipse cx="800" cy="778" rx="420" ry="75" fill="#F8D870" opacity="0.28"/>
  <ellipse cx="800" cy="778" rx="200" ry="36" fill="#FFF0A8" opacity="0.42"/>
  <circle cx="800" cy="780" r="50" fill="#FFF8D8" opacity="0.88"/>
  <g opacity="0.68">
    <ellipse cx="260" cy="358" rx="185" ry="55" fill="#1C0840"/>
    <ellipse cx="190" cy="342" rx="135" ry="46" fill="#240A52"/>
    <ellipse cx="335" cy="368" rx="145" ry="50" fill="#1C0840"/>
  </g>
  <g opacity="0.68">
    <ellipse cx="1010" cy="308" rx="205" ry="58" fill="#1C0840"/>
    <ellipse cx="930" cy="292" rx="148" ry="50" fill="#240A52"/>
    <ellipse cx="1100" cy="320" rx="162" ry="54" fill="#1C0840"/>
  </g>
  <g opacity="0.5">
    <ellipse cx="615" cy="438" rx="165" ry="46" fill="#1E0838"/>
    <ellipse cx="1365" cy="390" rx="155" ry="50" fill="#1E0838"/>
    <ellipse cx="1480" cy="408" rx="112" ry="40" fill="#1E0838"/>
  </g>
  <rect x="0" y="772" width="1600" height="12" fill="#F0D060" opacity="0.18"/>
  <polygon points="0,825 80,790 158,808 238,778 335,796 425,768 530,785 635,758 740,776 800,755 862,770 968,748 1075,764 1182,742 1285,758 1390,735 1490,752 1565,740 1600,745 1600,900 0,900" fill="#0C0510"/>
  <polygon points="0,872 105,852 228,862 358,848 505,858 658,842 810,854 960,838 1108,850 1258,835 1408,848 1600,836 1600,900 0,900" fill="#080308"/>
</svg>
