<svg xmlns="http://www.w3.org/2000/svg"
     viewBox="0 0 128 30" width="128" height="30" preserveAspectRatio="none">
  <defs><linearGradient id="pg0" x1="0" y1="2" x2="0" y2="10" gradientUnits="userSpaceOnUse"><stop offset="0%"   stop-color="#dfc8a8"/><stop offset="100%" stop-color="#cdb890"/></linearGradient><clipPath id="pc0"><rect x="2" y="2" width="124" height="8"/></clipPath><linearGradient id="pg1" x1="0" y1="12" x2="0" y2="20" gradientUnits="userSpaceOnUse"><stop offset="0%"   stop-color="#cdb890"/><stop offset="100%" stop-color="#baa87c"/></linearGradient><clipPath id="pc1"><rect x="2" y="12" width="124" height="8"/></clipPath><linearGradient id="pg2" x1="0" y1="22" x2="0" y2="28" gradientUnits="userSpaceOnUse"><stop offset="0%"   stop-color="#baa87c"/><stop offset="100%" stop-color="#a89468"/></linearGradient><clipPath id="pc2"><rect x="2" y="22" width="124" height="6"/></clipPath></defs>
  <rect x="0" y="0" width="128" height="30" fill="#9a8868"/>
  <rect x="2" y="10" width="124" height="2" fill="#9a8868"/><line x1="2" y1="10" x2="126" y2="10" stroke="rgba(0,0,0,0.22)" stroke-width="1"/><line x1="2" y1="11" x2="126" y2="11" stroke="rgba(180,130,80,0.14)" stroke-width="1"/><rect x="2" y="20" width="124" height="2" fill="#9a8868"/><line x1="2" y1="20" x2="126" y2="20" stroke="rgba(0,0,0,0.22)" stroke-width="1"/><line x1="2" y1="21" x2="126" y2="21" stroke="rgba(180,130,80,0.14)" stroke-width="1"/>
  <rect x="2" y="2" width="124" height="8" fill="url(#pg0)"/><line x1="2" y1="3" x2="126" y2="3" stroke="rgba(220,175,120,0.28)" stroke-width="1"/><line x1="2" y1="9" x2="126" y2="9" stroke="rgba(0,0,0,0.10)" stroke-width="1"/><rect x="2" y="12" width="124" height="8" fill="url(#pg1)"/><line x1="2" y1="13" x2="126" y2="13" stroke="rgba(220,175,120,0.28)" stroke-width="1"/><line x1="2" y1="19" x2="126" y2="19" stroke="rgba(0,0,0,0.10)" stroke-width="1"/><rect x="2" y="22" width="124" height="6" fill="url(#pg2)"/><line x1="2" y1="23" x2="126" y2="23" stroke="rgba(220,175,120,0.28)" stroke-width="1"/><line x1="2" y1="27" x2="126" y2="27" stroke="rgba(0,0,0,0.10)" stroke-width="1"/>
  <path d="M 0,4.00 L 4.00,4.14 L 8.00,4.27 L 12.00,4.39 L 16.00,4.49 L 20.00,4.58 L 24.00,4.65 L 28.00,4.69 L 32.00,4.70 L 36.00,4.69 L 40.00,4.65 L 44.00,4.58 L 48.00,4.49 L 52.00,4.39 L 56.00,4.27 L 60.00,4.14 L 64.00,4.00 L 68.00,3.86 L 72.00,3.73 L 76.00,3.61 L 80.00,3.51 L 84.00,3.42 L 88.00,3.35 L 92.00,3.31 L 96.00,3.30 L 100.00,3.31 L 104.00,3.35 L 108.00,3.42 L 112.00,3.51 L 116.00,3.61 L 120.00,3.73 L 124.00,3.86 L 128.00,4.00" clip-path="url(#pc0)" stroke="rgba(40,18,4,0.10)" stroke-width="1" fill="none"/><path d="M 0,6.50 L 4.00,6.69 L 8.00,6.85 L 12.00,6.96 L 16.00,7.00 L 20.00,6.96 L 24.00,6.85 L 28.00,6.69 L 32.00,6.50 L 36.00,6.31 L 40.00,6.15 L 44.00,6.04 L 48.00,6.00 L 52.00,6.04 L 56.00,6.15 L 60.00,6.31 L 64.00,6.50 L 68.00,6.69 L 72.00,6.85 L 76.00,6.96 L 80.00,7.00 L 84.00,6.96 L 88.00,6.85 L 92.00,6.69 L 96.00,6.50 L 100.00,6.31 L 104.00,6.15 L 108.00,6.04 L 112.00,6.00 L 116.00,6.04 L 120.00,6.15 L 124.00,6.31 L 128.00,6.50" clip-path="url(#pc0)" stroke="rgba(40,18,4,0.10)" stroke-width="1" fill="none"/><path d="M 0,14.00 L 4.00,14.25 L 8.00,14.46 L 12.00,14.60 L 16.00,14.65 L 20.00,14.60 L 24.00,14.46 L 28.00,14.25 L 32.00,14.00 L 36.00,13.75 L 40.00,13.54 L 44.00,13.40 L 48.00,13.35 L 52.00,13.40 L 56.00,13.54 L 60.00,13.75 L 64.00,14.00 L 68.00,14.25 L 72.00,14.46 L 76.00,14.60 L 80.00,14.65 L 84.00,14.60 L 88.00,14.46 L 92.00,14.25 L 96.00,14.00 L 100.00,13.75 L 104.00,13.54 L 108.00,13.40 L 112.00,13.35 L 116.00,13.40 L 120.00,13.54 L 124.00,13.75 L 128.00,14.00" clip-path="url(#pc1)" stroke="rgba(40,18,4,0.10)" stroke-width="1" fill="none"/><path d="M 0,16.50 L 4.00,16.59 L 8.00,16.67 L 12.00,16.75 L 16.00,16.82 L 20.00,16.87 L 24.00,16.92 L 28.00,16.94 L 32.00,16.95 L 36.00,16.94 L 40.00,16.92 L 44.00,16.87 L 48.00,16.82 L 52.00,16.75 L 56.00,16.67 L 60.00,16.59 L 64.00,16.50 L 68.00,16.41 L 72.00,16.33 L 76.00,16.25 L 80.00,16.18 L 84.00,16.13 L 88.00,16.08 L 92.00,16.06 L 96.00,16.05 L 100.00,16.06 L 104.00,16.08 L 108.00,16.13 L 112.00,16.18 L 116.00,16.25 L 120.00,16.33 L 124.00,16.41 L 128.00,16.50" clip-path="url(#pc1)" stroke="rgba(40,18,4,0.10)" stroke-width="1" fill="none"/><path d="M 0,24.00 L 4.00,24.11 L 8.00,24.21 L 12.00,24.31 L 16.00,24.39 L 20.00,24.46 L 24.00,24.51 L 28.00,24.54 L 32.00,24.55 L 36.00,24.54 L 40.00,24.51 L 44.00,24.46 L 48.00,24.39 L 52.00,24.31 L 56.00,24.21 L 60.00,24.11 L 64.00,24.00 L 68.00,23.89 L 72.00,23.79 L 76.00,23.69 L 80.00,23.61 L 84.00,23.54 L 88.00,23.49 L 92.00,23.46 L 96.00,23.45 L 100.00,23.46 L 104.00,23.49 L 108.00,23.54 L 112.00,23.61 L 116.00,23.69 L 120.00,23.79 L 124.00,23.89 L 128.00,24.00" clip-path="url(#pc2)" stroke="rgba(40,18,4,0.10)" stroke-width="1" fill="none"/>
  <line x1="43" y1="2" x2="43" y2="27" stroke="rgba(40,15,4,0.28)" stroke-width="1.5"/><line x1="44.5" y1="2" x2="44.5" y2="27" stroke="rgba(200,155,100,0.15)" stroke-width="1"/><line x1="86" y1="2" x2="86" y2="27" stroke="rgba(40,15,4,0.28)" stroke-width="1.5"/><line x1="87.5" y1="2" x2="87.5" y2="27" stroke="rgba(200,155,100,0.15)" stroke-width="1"/>
  
  <rect x="1" y="1" width="126" height="28"
        fill="none" stroke="#9a8868" stroke-width="2" stroke-dasharray="5 3"/>
</svg>