<svg xmlns="http://www.w3.org/2000/svg"
     viewBox="0 0 128 30" width="128" height="30" preserveAspectRatio="none">
  <defs>
    <linearGradient id="flip" x1="0" y1="0" x2="0" y2="1">
      <stop offset="0%"   stop-color="#9b59b6"/>
      <stop offset="100%" stop-color="#6c3483"/>
    </linearGradient>
    <clipPath id="fpc"><rect x="2" y="2" width="124" height="26"/></clipPath>
  </defs>
  <rect x="0" y="0" width="128" height="30" fill="#4a1a6a"/>
  <rect x="2" y="2" width="124" height="26" fill="url(#flip)"/>
  <g clip-path="url(#fpc)">
    <line x1="-30" y1="0" x2="0" y2="30" stroke="rgba(255,255,255,0.08)" stroke-width="1"/><line x1="-10" y1="0" x2="20" y2="30" stroke="rgba(255,255,255,0.08)" stroke-width="1"/><line x1="10" y1="0" x2="40" y2="30" stroke="rgba(255,255,255,0.08)" stroke-width="1"/><line x1="30" y1="0" x2="60" y2="30" stroke="rgba(255,255,255,0.08)" stroke-width="1"/><line x1="50" y1="0" x2="80" y2="30" stroke="rgba(255,255,255,0.08)" stroke-width="1"/><line x1="70" y1="0" x2="100" y2="30" stroke="rgba(255,255,255,0.08)" stroke-width="1"/><line x1="90" y1="0" x2="120" y2="30" stroke="rgba(255,255,255,0.08)" stroke-width="1"/><line x1="110" y1="0" x2="140" y2="30" stroke="rgba(255,255,255,0.08)" stroke-width="1"/><line x1="130" y1="0" x2="160" y2="30" stroke="rgba(255,255,255,0.08)" stroke-width="1"/><line x1="150" y1="0" x2="180" y2="30" stroke="rgba(255,255,255,0.08)" stroke-width="1"/>
  </g>
  <line x1="2" y1="3" x2="126" y2="3" stroke="rgba(255,255,255,0.30)" stroke-width="1"/>
  <circle cx="6" cy="6" r="2" fill="#b06dd0" stroke="#4a1a6a" stroke-width="1"/><circle cx="122" cy="6" r="2" fill="#b06dd0" stroke="#4a1a6a" stroke-width="1"/><circle cx="6" cy="24" r="2" fill="#b06dd0" stroke="#4a1a6a" stroke-width="1"/><circle cx="122" cy="24" r="2" fill="#b06dd0" stroke="#4a1a6a" stroke-width="1"/>
  <rect x="1" y="1" width="126" height="28" fill="none" stroke="#4a1a6a" stroke-width="2"/>
</svg>