<svg xmlns="http://www.w3.org/2000/svg"
     viewBox="0 0 128 30" width="128" height="30" preserveAspectRatio="none">
  <defs>
    <linearGradient id="bar" x1="0" y1="10" x2="0" y2="20" gradientUnits="userSpaceOnUse">
      <stop offset="0%"   stop-color="#e74c3c"/>
      <stop offset="100%" stop-color="#c0392b"/>
    </linearGradient>
  </defs>
  <rect x="0" y="0" width="128" height="30" fill="#7a1a10"/>
  <polygon points="2,10 14,10 8,2" fill="#e74c3c" stroke="#7a1a10" stroke-width="1"/><polygon points="18,10 30,10 24,2" fill="#e74c3c" stroke="#7a1a10" stroke-width="1"/><polygon points="34,10 46,10 40,2" fill="#e74c3c" stroke="#7a1a10" stroke-width="1"/><polygon points="50,10 62,10 56,2" fill="#e74c3c" stroke="#7a1a10" stroke-width="1"/><polygon points="66,10 78,10 72,2" fill="#e74c3c" stroke="#7a1a10" stroke-width="1"/><polygon points="82,10 94,10 88,2" fill="#e74c3c" stroke="#7a1a10" stroke-width="1"/><polygon points="98,10 110,10 104,2" fill="#e74c3c" stroke="#7a1a10" stroke-width="1"/><polygon points="114,10 126,10 120,2" fill="#e74c3c" stroke="#7a1a10" stroke-width="1"/>
  <polygon points="2,20 14,20 8,28" fill="#e74c3c" stroke="#7a1a10" stroke-width="1"/><polygon points="18,20 30,20 24,28" fill="#e74c3c" stroke="#7a1a10" stroke-width="1"/><polygon points="34,20 46,20 40,28" fill="#e74c3c" stroke="#7a1a10" stroke-width="1"/><polygon points="50,20 62,20 56,28" fill="#e74c3c" stroke="#7a1a10" stroke-width="1"/><polygon points="66,20 78,20 72,28" fill="#e74c3c" stroke="#7a1a10" stroke-width="1"/><polygon points="82,20 94,20 88,28" fill="#e74c3c" stroke="#7a1a10" stroke-width="1"/><polygon points="98,20 110,20 104,28" fill="#e74c3c" stroke="#7a1a10" stroke-width="1"/><polygon points="114,20 126,20 120,28" fill="#e74c3c" stroke="#7a1a10" stroke-width="1"/>
  <rect x="0" y="10" width="128" height="10" fill="url(#bar)"/>
  <line x1="0" y1="11" x2="128" y2="11" stroke="rgba(255,255,255,0.20)" stroke-width="1"/>
  <rect x="0" y="0" width="128" height="30" fill="none" stroke="#7a1a10" stroke-width="1"/>
</svg>