<svg xmlns="http://www.w3.org/2000/svg"
     viewBox="0 0 128 30" width="128" height="30" preserveAspectRatio="none">
  <defs><linearGradient id="pg0" x1="0" y1="2" x2="0" y2="10" gradientUnits="userSpaceOnUse"><stop offset="0%"   stop-color="#b4a8c0"/><stop offset="100%" stop-color="#9e90ae"/></linearGradient><clipPath id="pc0"><rect x="2" y="2" width="124" height="8"/></clipPath><linearGradient id="pg1" x1="0" y1="12" x2="0" y2="20" gradientUnits="userSpaceOnUse"><stop offset="0%"   stop-color="#9e90ae"/><stop offset="100%" stop-color="#8a7a9a"/></linearGradient><clipPath id="pc1"><rect x="2" y="12" width="124" height="8"/></clipPath><linearGradient id="pg2" x1="0" y1="22" x2="0" y2="28" gradientUnits="userSpaceOnUse"><stop offset="0%"   stop-color="#8a7a9a"/><stop offset="100%" stop-color="#786888"/></linearGradient><clipPath id="pc2"><rect x="2" y="22" width="124" height="6"/></clipPath></defs>
  <rect x="0" y="0" width="128" height="30" fill="#5a5068"/>
  <rect x="2" y="10" width="124" height="2" fill="#5a5068"/><line x1="2" y1="10" x2="126" y2="10" stroke="rgba(0,0,0,0.22)" stroke-width="1"/><line x1="2" y1="11" x2="126" y2="11" stroke="rgba(180,130,80,0.14)" stroke-width="1"/><rect x="2" y="20" width="124" height="2" fill="#5a5068"/><line x1="2" y1="20" x2="126" y2="20" stroke="rgba(0,0,0,0.22)" stroke-width="1"/><line x1="2" y1="21" x2="126" y2="21" stroke="rgba(180,130,80,0.14)" stroke-width="1"/>
  <rect x="2" y="2" width="124" height="8" fill="url(#pg0)"/><line x1="2" y1="3" x2="126" y2="3" stroke="rgba(220,175,120,0.28)" stroke-width="1"/><line x1="2" y1="9" x2="126" y2="9" stroke="rgba(0,0,0,0.10)" stroke-width="1"/><rect x="2" y="12" width="124" height="8" fill="url(#pg1)"/><line x1="2" y1="13" x2="126" y2="13" stroke="rgba(220,175,120,0.28)" stroke-width="1"/><line x1="2" y1="19" x2="126" y2="19" stroke="rgba(0,0,0,0.10)" stroke-width="1"/><rect x="2" y="22" width="124" height="6" fill="url(#pg2)"/><line x1="2" y1="23" x2="126" y2="23" stroke="rgba(220,175,120,0.28)" stroke-width="1"/><line x1="2" y1="27" x2="126" y2="27" stroke="rgba(0,0,0,0.10)" stroke-width="1"/>
  <path d="M 0,4.00 L 4.00,4.18 L 8.00,4.34 L 12.00,4.50 L 16.00,4.64 L 20.00,4.75 L 24.00,4.83 L 28.00,4.88 L 32.00,4.90 L 36.00,4.88 L 40.00,4.83 L 44.00,4.75 L 48.00,4.64 L 52.00,4.50 L 56.00,4.34 L 60.00,4.18 L 64.00,4.00 L 68.00,3.82 L 72.00,3.66 L 76.00,3.50 L 80.00,3.36 L 84.00,3.25 L 88.00,3.17 L 92.00,3.12 L 96.00,3.10 L 100.00,3.12 L 104.00,3.17 L 108.00,3.25 L 112.00,3.36 L 116.00,3.50 L 120.00,3.66 L 124.00,3.82 L 128.00,4.00" clip-path="url(#pc0)" stroke="rgba(20,10,30,0.14)" stroke-width="1" fill="none"/><path d="M 0,6.50 L 4.00,6.75 L 8.00,6.96 L 12.00,7.10 L 16.00,7.15 L 20.00,7.10 L 24.00,6.96 L 28.00,6.75 L 32.00,6.50 L 36.00,6.25 L 40.00,6.04 L 44.00,5.90 L 48.00,5.85 L 52.00,5.90 L 56.00,6.04 L 60.00,6.25 L 64.00,6.50 L 68.00,6.75 L 72.00,6.96 L 76.00,7.10 L 80.00,7.15 L 84.00,7.10 L 88.00,6.96 L 92.00,6.75 L 96.00,6.50 L 100.00,6.25 L 104.00,6.04 L 108.00,5.90 L 112.00,5.85 L 116.00,5.90 L 120.00,6.04 L 124.00,6.25 L 128.00,6.50" clip-path="url(#pc0)" stroke="rgba(20,10,30,0.14)" stroke-width="1" fill="none"/><path d="M 0,14.00 L 4.00,14.33 L 8.00,14.60 L 12.00,14.79 L 16.00,14.85 L 20.00,14.79 L 24.00,14.60 L 28.00,14.33 L 32.00,14.00 L 36.00,13.67 L 40.00,13.40 L 44.00,13.21 L 48.00,13.15 L 52.00,13.21 L 56.00,13.40 L 60.00,13.67 L 64.00,14.00 L 68.00,14.33 L 72.00,14.60 L 76.00,14.79 L 80.00,14.85 L 84.00,14.79 L 88.00,14.60 L 92.00,14.33 L 96.00,14.00 L 100.00,13.67 L 104.00,13.40 L 108.00,13.21 L 112.00,13.15 L 116.00,13.21 L 120.00,13.40 L 124.00,13.67 L 128.00,14.00" clip-path="url(#pc1)" stroke="rgba(20,10,30,0.14)" stroke-width="1" fill="none"/><path d="M 0,16.50 L 4.00,16.62 L 8.00,16.73 L 12.00,16.83 L 16.00,16.92 L 20.00,17.00 L 24.00,17.05 L 28.00,17.09 L 32.00,17.10 L 36.00,17.09 L 40.00,17.05 L 44.00,17.00 L 48.00,16.92 L 52.00,16.83 L 56.00,16.73 L 60.00,16.62 L 64.00,16.50 L 68.00,16.38 L 72.00,16.27 L 76.00,16.17 L 80.00,16.08 L 84.00,16.00 L 88.00,15.95 L 92.00,15.91 L 96.00,15.90 L 100.00,15.91 L 104.00,15.95 L 108.00,16.00 L 112.00,16.08 L 116.00,16.17 L 120.00,16.27 L 124.00,16.38 L 128.00,16.50" clip-path="url(#pc1)" stroke="rgba(20,10,30,0.14)" stroke-width="1" fill="none"/><path d="M 0,24.00 L 4.00,24.14 L 8.00,24.27 L 12.00,24.39 L 16.00,24.49 L 20.00,24.58 L 24.00,24.65 L 28.00,24.69 L 32.00,24.70 L 36.00,24.69 L 40.00,24.65 L 44.00,24.58 L 48.00,24.49 L 52.00,24.39 L 56.00,24.27 L 60.00,24.14 L 64.00,24.00 L 68.00,23.86 L 72.00,23.73 L 76.00,23.61 L 80.00,23.51 L 84.00,23.42 L 88.00,23.35 L 92.00,23.31 L 96.00,23.30 L 100.00,23.31 L 104.00,23.35 L 108.00,23.42 L 112.00,23.51 L 116.00,23.61 L 120.00,23.73 L 124.00,23.86 L 128.00,24.00" clip-path="url(#pc2)" stroke="rgba(20,10,30,0.14)" stroke-width="1" fill="none"/>
  <line x1="43" y1="2" x2="43" y2="27" stroke="rgba(40,15,4,0.28)" stroke-width="1.5"/><line x1="44.5" y1="2" x2="44.5" y2="27" stroke="rgba(200,155,100,0.15)" stroke-width="1"/><line x1="86" y1="2" x2="86" y2="27" stroke="rgba(40,15,4,0.28)" stroke-width="1.5"/><line x1="87.5" y1="2" x2="87.5" y2="27" stroke="rgba(200,155,100,0.15)" stroke-width="1"/>
  <polyline points="50,15 57,15.5 50,16" fill="none" stroke="rgba(255,255,255,0.35)" stroke-width="1.5" stroke-linejoin="round"/><polyline points="64,15 71,15.5 64,16" fill="none" stroke="rgba(255,255,255,0.35)" stroke-width="1.5" stroke-linejoin="round"/><polyline points="78,15 85,15.5 78,16" fill="none" stroke="rgba(255,255,255,0.35)" stroke-width="1.5" stroke-linejoin="round"/>
  <rect x="1" y="1" width="126" height="28"
        fill="none" stroke="#5a5068" stroke-width="2"/>
</svg>