<svg xmlns="http://www.w3.org/2000/svg" viewBox="0 0 40 40" width="40" height="40">
  <!-- Toothed outer ring (12 teeth alternating outer r=18, inner r=12) -->
  <polygon points="20,2 23.1,8.4 29,4.4 28.5,11.5 35.6,11 31.6,16.9 38,20 31.6,23.1 35.6,29 28.5,28.5 29,35.6 23.1,31.6 20,38 16.9,31.6 11,35.6 11.5,28.5 4.4,29 8.4,23.1 2,20 8.4,16.9 4.4,11 11.5,11.5 11,4.4 16.9,8.4"
    fill="#d0d0d0" stroke="#999" stroke-width="0.5"/>
  <!-- Body disc -->
  <circle cx="20" cy="20" r="10" fill="#888" stroke="#666" stroke-width="1"/>
  <!-- Spokes -->
  <line x1="20" y1="10" x2="20" y2="30" stroke="#555" stroke-width="2"/>
  <line x1="10" y1="20" x2="30" y2="20" stroke="#555" stroke-width="2"/>
  <line x1="12.9" y1="12.9" x2="27.1" y2="27.1" stroke="#555" stroke-width="1.5"/>
  <line x1="27.1" y1="12.9" x2="12.9" y2="27.1" stroke="#555" stroke-width="1.5"/>
  <!-- Center bolt -->
  <circle cx="20" cy="20" r="3.5" fill="#333" stroke="#222" stroke-width="0.5"/>
</svg>
