<svg xmlns="http://www.w3.org/2000/svg"
     viewBox="0 0 128 30" width="128" height="30" preserveAspectRatio="none">
  <defs>
    <linearGradient id="glow" x1="0" y1="0" x2="0" y2="1">
      <stop offset="0%"   stop-color="#fff9a0"/>
      <stop offset="100%" stop-color="#c89400"/>
    </linearGradient>
    <filter id="gf" x="-5%" y="-5%" width="110%" height="110%">
      <feGaussianBlur in="SourceGraphic" stdDeviation="1.5"/>
    </filter>
  </defs>
  <rect x="0" y="0" width="128" height="30" fill="#806000"/>
  <rect x="2" y="2" width="124" height="26" fill="url(#glow)"/>
  <rect x="2" y="2" width="124" height="3" fill="rgba(255,255,255,0.50)"/>
  <path d="M 10,4 Q 14,1 18,4" fill="none" stroke="rgba(255,255,255,0.70)" stroke-width="1.5"/><path d="M 25,4 Q 29,1 33,4" fill="none" stroke="rgba(255,255,255,0.70)" stroke-width="1.5"/><path d="M 40,4 Q 44,1 48,4" fill="none" stroke="rgba(255,255,255,0.70)" stroke-width="1.5"/><path d="M 55,4 Q 59,1 63,4" fill="none" stroke="rgba(255,255,255,0.70)" stroke-width="1.5"/><path d="M 70,4 Q 74,1 78,4" fill="none" stroke="rgba(255,255,255,0.70)" stroke-width="1.5"/><path d="M 85,4 Q 89,1 93,4" fill="none" stroke="rgba(255,255,255,0.70)" stroke-width="1.5"/><path d="M 100,4 Q 104,1 108,4" fill="none" stroke="rgba(255,255,255,0.70)" stroke-width="1.5"/><path d="M 115,4 Q 119,1 123,4" fill="none" stroke="rgba(255,255,255,0.70)" stroke-width="1.5"/>
  <polyline points="30,7 26,13 30,13 26,23" fill="none" stroke="white" stroke-width="2" stroke-linejoin="round" stroke-linecap="round"/><polyline points="66,7 62,13 66,13 62,23" fill="none" stroke="white" stroke-width="2" stroke-linejoin="round" stroke-linecap="round"/><polyline points="102,7 98,13 102,13 98,23" fill="none" stroke="white" stroke-width="2" stroke-linejoin="round" stroke-linecap="round"/>
  <line x1="2" y1="2" x2="126" y2="2" stroke="rgba(255,255,255,0.70)" stroke-width="1"/>
  <rect x="1" y="1" width="126" height="28" fill="none" stroke="#806000" stroke-width="2"/>
</svg>