<svg xmlns="http://www.w3.org/2000/svg"
     viewBox="0 0 128 30" width="128" height="30" preserveAspectRatio="none">
  <defs>
    <linearGradient id="steel" x1="0" y1="0" x2="0" y2="1">
      <stop offset="0%"   stop-color="#707888"/>
      <stop offset="100%" stop-color="#3a4050"/>
    </linearGradient>
    <clipPath id="hcl"><rect x="2" y="2" width="124" height="4"/></clipPath>
  </defs>
  <rect x="0" y="0" width="128" height="30" fill="#2a3038"/>
  <rect x="2" y="2" width="124" height="26" fill="url(#steel)"/>
  <line x1="32" y1="2" x2="32" y2="28" stroke="rgba(255,255,255,0.06)" stroke-width="1"/><line x1="64" y1="2" x2="64" y2="28" stroke="rgba(255,255,255,0.06)" stroke-width="1"/><line x1="96" y1="2" x2="96" y2="28" stroke="rgba(255,255,255,0.06)" stroke-width="1"/>
  <line x1="2" y1="12" x2="126" y2="12" stroke="rgba(255,255,255,0.06)" stroke-width="1"/><line x1="2" y1="20" x2="126" y2="20" stroke="rgba(255,255,255,0.06)" stroke-width="1"/>
  <clipPath id="hcl"><rect x="2" y="2" width="124" height="4"/></clipPath>
  <g clip-path="url(#hcl)">
    <rect x="2" y="2" width="4" height="4" fill="#1e1e1e"/><rect x="6" y="2" width="4" height="4" fill="#555"/><rect x="10" y="2" width="4" height="4" fill="#1e1e1e"/><rect x="14" y="2" width="4" height="4" fill="#555"/><rect x="18" y="2" width="4" height="4" fill="#1e1e1e"/><rect x="22" y="2" width="4" height="4" fill="#555"/><rect x="26" y="2" width="4" height="4" fill="#1e1e1e"/><rect x="30" y="2" width="4" height="4" fill="#555"/><rect x="34" y="2" width="4" height="4" fill="#1e1e1e"/><rect x="38" y="2" width="4" height="4" fill="#555"/><rect x="42" y="2" width="4" height="4" fill="#1e1e1e"/><rect x="46" y="2" width="4" height="4" fill="#555"/><rect x="50" y="2" width="4" height="4" fill="#1e1e1e"/><rect x="54" y="2" width="4" height="4" fill="#555"/><rect x="58" y="2" width="4" height="4" fill="#1e1e1e"/><rect x="62" y="2" width="4" height="4" fill="#555"/><rect x="66" y="2" width="4" height="4" fill="#1e1e1e"/><rect x="70" y="2" width="4" height="4" fill="#555"/><rect x="74" y="2" width="4" height="4" fill="#1e1e1e"/><rect x="78" y="2" width="4" height="4" fill="#555"/><rect x="82" y="2" width="4" height="4" fill="#1e1e1e"/><rect x="86" y="2" width="4" height="4" fill="#555"/><rect x="90" y="2" width="4" height="4" fill="#1e1e1e"/><rect x="94" y="2" width="4" height="4" fill="#555"/><rect x="98" y="2" width="4" height="4" fill="#1e1e1e"/><rect x="102" y="2" width="4" height="4" fill="#555"/><rect x="106" y="2" width="4" height="4" fill="#1e1e1e"/><rect x="110" y="2" width="4" height="4" fill="#555"/><rect x="114" y="2" width="4" height="4" fill="#1e1e1e"/><rect x="118" y="2" width="4" height="4" fill="#555"/><rect x="122" y="2" width="4" height="4" fill="#1e1e1e"/><rect x="126" y="2" width="4" height="4" fill="#555"/><rect x="130" y="2" width="4" height="4" fill="#1e1e1e"/><rect x="134" y="2" width="4" height="4" fill="#555"/>
  </g>
  <line x1="2" y1="2" x2="126" y2="2" stroke="rgba(255,255,255,0.20)" stroke-width="1"/>
  <circle cx="8" cy="8" r="2.5" fill="#4a5060" stroke="#2a3038" stroke-width="1"/><circle cx="120" cy="8" r="2.5" fill="#4a5060" stroke="#2a3038" stroke-width="1"/><circle cx="8" cy="22" r="2.5" fill="#4a5060" stroke="#2a3038" stroke-width="1"/><circle cx="120" cy="22" r="2.5" fill="#4a5060" stroke="#2a3038" stroke-width="1"/>
  <rect x="1" y="1" width="126" height="28" fill="none" stroke="#2a3038" stroke-width="2"/>
</svg>