<svg xmlns="http://www.w3.org/2000/svg"
     viewBox="0 0 190 30" width="190" height="30" opacity="0.55">
  <rect x="0" y="0" width="15" height="15" fill="#2ecc71"/><rect x="15" y="0" width="15" height="15" fill="#3498db"/><rect x="30" y="0" width="15" height="15" fill="#2ecc71"/><rect x="45" y="0" width="15" height="15" fill="#3498db"/><rect x="60" y="0" width="15" height="15" fill="#2ecc71"/><rect x="75" y="0" width="15" height="15" fill="#3498db"/><rect x="90" y="0" width="15" height="15" fill="#2ecc71"/><rect x="105" y="0" width="15" height="15" fill="#3498db"/><rect x="120" y="0" width="15" height="15" fill="#2ecc71"/><rect x="135" y="0" width="15" height="15" fill="#3498db"/><rect x="150" y="0" width="15" height="15" fill="#2ecc71"/><rect x="165" y="0" width="15" height="15" fill="#3498db"/><rect x="180" y="0" width="10" height="15" fill="#2ecc71"/><rect x="0" y="15" width="15" height="15" fill="#3498db"/><rect x="15" y="15" width="15" height="15" fill="#2ecc71"/><rect x="30" y="15" width="15" height="15" fill="#3498db"/><rect x="45" y="15" width="15" height="15" fill="#2ecc71"/><rect x="60" y="15" width="15" height="15" fill="#3498db"/><rect x="75" y="15" width="15" height="15" fill="#2ecc71"/><rect x="90" y="15" width="15" height="15" fill="#3498db"/><rect x="105" y="15" width="15" height="15" fill="#2ecc71"/><rect x="120" y="15" width="15" height="15" fill="#3498db"/><rect x="135" y="15" width="15" height="15" fill="#2ecc71"/><rect x="150" y="15" width="15" height="15" fill="#3498db"/><rect x="165" y="15" width="15" height="15" fill="#2ecc71"/><rect x="180" y="15" width="10" height="15" fill="#3498db"/>
</svg>