<svg xmlns="http://www.w3.org/2000/svg"
     viewBox="0 0 190 30" width="190" height="30">
  <defs>
    <linearGradient id="sg" x1="0" y1="0" x2="0" y2="1">
      <stop offset="0%"   stop-color="#48c868"/>
      <stop offset="100%" stop-color="#28a048"/>
    </linearGradient>
  </defs>
  <rect x="0" y="0" width="190" height="30" fill="#1a6030"/>
  <rect x="2" y="2" width="186" height="26" fill="url(#sg)"/>
  <rect x="2" y="2" width="5" height="5" fill="rgba(160,255,190,0.50)"/><rect x="12" y="2" width="5" height="5" fill="rgba(160,255,190,0.50)"/><rect x="22" y="2" width="5" height="5" fill="rgba(160,255,190,0.50)"/><rect x="32" y="2" width="5" height="5" fill="rgba(160,255,190,0.50)"/><rect x="42" y="2" width="5" height="5" fill="rgba(160,255,190,0.50)"/><rect x="52" y="2" width="5" height="5" fill="rgba(160,255,190,0.50)"/><rect x="62" y="2" width="5" height="5" fill="rgba(160,255,190,0.50)"/><rect x="72" y="2" width="5" height="5" fill="rgba(160,255,190,0.50)"/><rect x="82" y="2" width="5" height="5" fill="rgba(160,255,190,0.50)"/><rect x="92" y="2" width="5" height="5" fill="rgba(160,255,190,0.50)"/><rect x="102" y="2" width="5" height="5" fill="rgba(160,255,190,0.50)"/><rect x="112" y="2" width="5" height="5" fill="rgba(160,255,190,0.50)"/><rect x="122" y="2" width="5" height="5" fill="rgba(160,255,190,0.50)"/><rect x="132" y="2" width="5" height="5" fill="rgba(160,255,190,0.50)"/><rect x="142" y="2" width="5" height="5" fill="rgba(160,255,190,0.50)"/><rect x="152" y="2" width="5" height="5" fill="rgba(160,255,190,0.50)"/><rect x="162" y="2" width="5" height="5" fill="rgba(160,255,190,0.50)"/><rect x="172" y="2" width="5" height="5" fill="rgba(160,255,190,0.50)"/><rect x="182" y="2" width="5" height="5" fill="rgba(160,255,190,0.50)"/><rect x="7" y="7" width="5" height="5" fill="rgba(160,255,190,0.50)"/><rect x="17" y="7" width="5" height="5" fill="rgba(160,255,190,0.50)"/><rect x="27" y="7" width="5" height="5" fill="rgba(160,255,190,0.50)"/><rect x="37" y="7" width="5" height="5" fill="rgba(160,255,190,0.50)"/><rect x="47" y="7" width="5" height="5" fill="rgba(160,255,190,0.50)"/><rect x="57" y="7" width="5" height="5" fill="rgba(160,255,190,0.50)"/><rect x="67" y="7" width="5" height="5" fill="rgba(160,255,190,0.50)"/><rect x="77" y="7" width="5" height="5" fill="rgba(160,255,190,0.50)"/><rect x="87" y="7" width="5" height="5" fill="rgba(160,255,190,0.50)"/><rect x="97" y="7" width="5" height="5" fill="rgba(160,255,190,0.50)"/><rect x="107" y="7" width="5" height="5" fill="rgba(160,255,190,0.50)"/><rect x="117" y="7" width="5" height="5" fill="rgba(160,255,190,0.50)"/><rect x="127" y="7" width="5" height="5" fill="rgba(160,255,190,0.50)"/><rect x="137" y="7" width="5" height="5" fill="rgba(160,255,190,0.50)"/><rect x="147" y="7" width="5" height="5" fill="rgba(160,255,190,0.50)"/><rect x="157" y="7" width="5" height="5" fill="rgba(160,255,190,0.50)"/><rect x="167" y="7" width="5" height="5" fill="rgba(160,255,190,0.50)"/><rect x="177" y="7" width="5" height="5" fill="rgba(160,255,190,0.50)"/><rect x="187" y="7" width="1" height="5" fill="rgba(160,255,190,0.50)"/><rect x="2" y="12" width="5" height="5" fill="rgba(160,255,190,0.50)"/><rect x="12" y="12" width="5" height="5" fill="rgba(160,255,190,0.50)"/><rect x="22" y="12" width="5" height="5" fill="rgba(160,255,190,0.50)"/><rect x="32" y="12" width="5" height="5" fill="rgba(160,255,190,0.50)"/><rect x="42" y="12" width="5" height="5" fill="rgba(160,255,190,0.50)"/><rect x="52" y="12" width="5" height="5" fill="rgba(160,255,190,0.50)"/><rect x="62" y="12" width="5" height="5" fill="rgba(160,255,190,0.50)"/><rect x="72" y="12" width="5" height="5" fill="rgba(160,255,190,0.50)"/><rect x="82" y="12" width="5" height="5" fill="rgba(160,255,190,0.50)"/><rect x="92" y="12" width="5" height="5" fill="rgba(160,255,190,0.50)"/><rect x="102" y="12" width="5" height="5" fill="rgba(160,255,190,0.50)"/><rect x="112" y="12" width="5" height="5" fill="rgba(160,255,190,0.50)"/><rect x="122" y="12" width="5" height="5" fill="rgba(160,255,190,0.50)"/><rect x="132" y="12" width="5" height="5" fill="rgba(160,255,190,0.50)"/><rect x="142" y="12" width="5" height="5" fill="rgba(160,255,190,0.50)"/><rect x="152" y="12" width="5" height="5" fill="rgba(160,255,190,0.50)"/><rect x="162" y="12" width="5" height="5" fill="rgba(160,255,190,0.50)"/><rect x="172" y="12" width="5" height="5" fill="rgba(160,255,190,0.50)"/><rect x="182" y="12" width="5" height="5" fill="rgba(160,255,190,0.50)"/><rect x="7" y="17" width="5" height="5" fill="rgba(160,255,190,0.50)"/><rect x="17" y="17" width="5" height="5" fill="rgba(160,255,190,0.50)"/><rect x="27" y="17" width="5" height="5" fill="rgba(160,255,190,0.50)"/><rect x="37" y="17" width="5" height="5" fill="rgba(160,255,190,0.50)"/><rect x="47" y="17" width="5" height="5" fill="rgba(160,255,190,0.50)"/><rect x="57" y="17" width="5" height="5" fill="rgba(160,255,190,0.50)"/><rect x="67" y="17" width="5" height="5" fill="rgba(160,255,190,0.50)"/><rect x="77" y="17" width="5" height="5" fill="rgba(160,255,190,0.50)"/><rect x="87" y="17" width="5" height="5" fill="rgba(160,255,190,0.50)"/><rect x="97" y="17" width="5" height="5" fill="rgba(160,255,190,0.50)"/><rect x="107" y="17" width="5" height="5" fill="rgba(160,255,190,0.50)"/><rect x="117" y="17" width="5" height="5" fill="rgba(160,255,190,0.50)"/><rect x="127" y="17" width="5" height="5" fill="rgba(160,255,190,0.50)"/><rect x="137" y="17" width="5" height="5" fill="rgba(160,255,190,0.50)"/><rect x="147" y="17" width="5" height="5" fill="rgba(160,255,190,0.50)"/><rect x="157" y="17" width="5" height="5" fill="rgba(160,255,190,0.50)"/><rect x="167" y="17" width="5" height="5" fill="rgba(160,255,190,0.50)"/><rect x="177" y="17" width="5" height="5" fill="rgba(160,255,190,0.50)"/><rect x="187" y="17" width="1" height="5" fill="rgba(160,255,190,0.50)"/><rect x="2" y="22" width="5" height="5" fill="rgba(160,255,190,0.50)"/><rect x="12" y="22" width="5" height="5" fill="rgba(160,255,190,0.50)"/><rect x="22" y="22" width="5" height="5" fill="rgba(160,255,190,0.50)"/><rect x="32" y="22" width="5" height="5" fill="rgba(160,255,190,0.50)"/><rect x="42" y="22" width="5" height="5" fill="rgba(160,255,190,0.50)"/><rect x="52" y="22" width="5" height="5" fill="rgba(160,255,190,0.50)"/><rect x="62" y="22" width="5" height="5" fill="rgba(160,255,190,0.50)"/><rect x="72" y="22" width="5" height="5" fill="rgba(160,255,190,0.50)"/><rect x="82" y="22" width="5" height="5" fill="rgba(160,255,190,0.50)"/><rect x="92" y="22" width="5" height="5" fill="rgba(160,255,190,0.50)"/><rect x="102" y="22" width="5" height="5" fill="rgba(160,255,190,0.50)"/><rect x="112" y="22" width="5" height="5" fill="rgba(160,255,190,0.50)"/><rect x="122" y="22" width="5" height="5" fill="rgba(160,255,190,0.50)"/><rect x="132" y="22" width="5" height="5" fill="rgba(160,255,190,0.50)"/><rect x="142" y="22" width="5" height="5" fill="rgba(160,255,190,0.50)"/><rect x="152" y="22" width="5" height="5" fill="rgba(160,255,190,0.50)"/><rect x="162" y="22" width="5" height="5" fill="rgba(160,255,190,0.50)"/><rect x="172" y="22" width="5" height="5" fill="rgba(160,255,190,0.50)"/><rect x="182" y="22" width="5" height="5" fill="rgba(160,255,190,0.50)"/><rect x="7" y="27" width="5" height="1" fill="rgba(160,255,190,0.50)"/><rect x="17" y="27" width="5" height="1" fill="rgba(160,255,190,0.50)"/><rect x="27" y="27" width="5" height="1" fill="rgba(160,255,190,0.50)"/><rect x="37" y="27" width="5" height="1" fill="rgba(160,255,190,0.50)"/><rect x="47" y="27" width="5" height="1" fill="rgba(160,255,190,0.50)"/><rect x="57" y="27" width="5" height="1" fill="rgba(160,255,190,0.50)"/><rect x="67" y="27" width="5" height="1" fill="rgba(160,255,190,0.50)"/><rect x="77" y="27" width="5" height="1" fill="rgba(160,255,190,0.50)"/><rect x="87" y="27" width="5" height="1" fill="rgba(160,255,190,0.50)"/><rect x="97" y="27" width="5" height="1" fill="rgba(160,255,190,0.50)"/><rect x="107" y="27" width="5" height="1" fill="rgba(160,255,190,0.50)"/><rect x="117" y="27" width="5" height="1" fill="rgba(160,255,190,0.50)"/><rect x="127" y="27" width="5" height="1" fill="rgba(160,255,190,0.50)"/><rect x="137" y="27" width="5" height="1" fill="rgba(160,255,190,0.50)"/><rect x="147" y="27" width="5" height="1" fill="rgba(160,255,190,0.50)"/><rect x="157" y="27" width="5" height="1" fill="rgba(160,255,190,0.50)"/><rect x="167" y="27" width="5" height="1" fill="rgba(160,255,190,0.50)"/><rect x="177" y="27" width="5" height="1" fill="rgba(160,255,190,0.50)"/><rect x="187" y="27" width="1" height="1" fill="rgba(160,255,190,0.50)"/>
  <line x1="2" y1="3" x2="188" y2="3" stroke="rgba(255,255,255,0.40)" stroke-width="1"/>
  <rect x="1" y="1" width="188" height="28" fill="none" stroke="#1a6030" stroke-width="2"/>
</svg>